<svg xmlns="http://www.w3.org/2000/svg" xmlns:xlink="http://www.w3.org/1999/xlink" width="981" zoomAndPan="magnify" viewBox="0 0 735.75 735.749978" height="981" preserveAspectRatio="xMidYMid meet" version="1.0"><defs><clipPath id="4e1d0825af"><path d="M 32.1875 0 L 703.4375 0 L 703.4375 735.5 L 32.1875 735.5 Z M 32.1875 0 " clip-rule="nonzero"/></clipPath></defs><g clip-path="url(#4e1d0825af)"><path fill="#000000" d="M 671.476562 128.101562 L 527.636719 128.101562 L 527.636719 105.5625 C 527.632812 103.839844 527.589844 102.117188 527.5 100.394531 C 527.414062 98.675781 527.285156 96.957031 527.113281 95.242188 C 526.941406 93.527344 526.730469 91.816406 526.476562 90.113281 C 526.21875 88.410156 525.921875 86.710938 525.585938 85.023438 C 525.246094 83.332031 524.867188 81.652344 524.449219 79.980469 C 524.027344 78.308594 523.566406 76.648438 523.066406 75 C 522.5625 73.351562 522.019531 71.71875 521.4375 70.09375 C 520.855469 68.472656 520.234375 66.867188 519.574219 65.273438 C 518.914062 63.683594 518.214844 62.109375 517.476562 60.550781 C 516.742188 58.996094 515.964844 57.457031 515.152344 55.9375 C 514.339844 54.417969 513.488281 52.917969 512.601562 51.441406 C 511.714844 49.964844 510.792969 48.507812 509.835938 47.074219 C 508.878906 45.644531 507.886719 44.234375 506.859375 42.851562 C 505.832031 41.46875 504.773438 40.109375 503.679688 38.777344 C 502.585938 37.445312 501.460938 36.140625 500.304688 34.863281 C 499.148438 33.589844 497.957031 32.339844 496.742188 31.121094 C 495.523438 29.902344 494.273438 28.714844 493 27.558594 C 491.722656 26.402344 490.417969 25.273438 489.085938 24.179688 C 487.753906 23.089844 486.398438 22.027344 485.011719 21 C 483.628906 19.972656 482.222656 18.980469 480.789062 18.023438 C 479.355469 17.066406 477.902344 16.144531 476.425781 15.257812 C 474.949219 14.371094 473.449219 13.519531 471.929688 12.707031 C 470.410156 11.894531 468.875 11.117188 467.316406 10.378906 C 465.757812 9.644531 464.183594 8.945312 462.59375 8.28125 C 461.003906 7.621094 459.394531 7 457.773438 6.417969 C 456.152344 5.835938 454.515625 5.296875 452.867188 4.792969 C 451.21875 4.292969 449.5625 3.832031 447.890625 3.410156 C 446.21875 2.988281 444.539062 2.609375 442.847656 2.273438 C 441.160156 1.933594 439.464844 1.636719 437.757812 1.382812 C 436.054688 1.128906 434.347656 0.914062 432.632812 0.742188 C 430.917969 0.570312 429.199219 0.441406 427.480469 0.355469 C 425.757812 0.269531 424.035156 0.222656 422.3125 0.222656 L 313.316406 0.222656 C 311.59375 0.222656 309.871094 0.269531 308.148438 0.355469 C 306.429688 0.441406 304.710938 0.570312 302.996094 0.742188 C 301.28125 0.914062 299.574219 1.128906 297.867188 1.382812 C 296.164062 1.636719 294.46875 1.933594 292.777344 2.273438 C 291.089844 2.609375 289.410156 2.988281 287.738281 3.410156 C 286.066406 3.832031 284.40625 4.292969 282.757812 4.792969 C 281.109375 5.296875 279.476562 5.835938 277.855469 6.417969 C 276.234375 7 274.625 7.621094 273.035156 8.28125 C 271.441406 8.945312 269.867188 9.644531 268.3125 10.378906 C 266.753906 11.117188 265.21875 11.894531 263.699219 12.707031 C 262.179688 13.519531 260.679688 14.371094 259.203125 15.257812 C 257.726562 16.144531 256.269531 17.066406 254.839844 18.023438 C 253.40625 18.980469 252 19.972656 250.613281 21 C 249.230469 22.027344 247.875 23.089844 246.542969 24.179688 C 245.210938 25.273438 243.90625 26.402344 242.628906 27.558594 C 241.351562 28.714844 240.105469 29.902344 238.886719 31.121094 C 237.667969 32.339844 236.480469 33.589844 235.324219 34.863281 C 234.167969 36.140625 233.042969 37.445312 231.949219 38.777344 C 230.855469 40.109375 229.796875 41.46875 228.769531 42.851562 C 227.742188 44.234375 226.75 45.644531 225.792969 47.074219 C 224.832031 48.507812 223.910156 49.964844 223.023438 51.441406 C 222.140625 52.917969 221.289062 54.417969 220.476562 55.9375 C 219.664062 57.457031 218.886719 58.996094 218.148438 60.550781 C 217.414062 62.109375 216.714844 63.683594 216.050781 65.273438 C 215.390625 66.867188 214.769531 68.472656 214.1875 70.09375 C 213.605469 71.71875 213.066406 73.351562 212.5625 75 C 212.0625 76.648438 211.601562 78.308594 211.179688 79.980469 C 210.761719 81.652344 210.378906 83.332031 210.042969 85.023438 C 209.703125 86.710938 209.410156 88.410156 209.152344 90.113281 C 208.898438 91.816406 208.683594 93.527344 208.515625 95.242188 C 208.34375 96.957031 208.214844 98.675781 208.128906 100.394531 C 208.039062 102.117188 207.996094 103.839844 207.992188 105.5625 L 207.992188 128.101562 L 64.152344 128.101562 C 63.105469 128.101562 62.0625 128.152344 61.019531 128.253906 C 59.976562 128.359375 58.945312 128.511719 57.917969 128.714844 C 56.890625 128.917969 55.875 129.171875 54.875 129.476562 C 53.871094 129.78125 52.886719 130.132812 51.921875 130.535156 C 50.953125 130.933594 50.007812 131.382812 49.085938 131.875 C 48.164062 132.371094 47.265625 132.90625 46.394531 133.488281 C 45.523438 134.070312 44.683594 134.695312 43.875 135.359375 C 43.066406 136.023438 42.292969 136.722656 41.550781 137.464844 C 40.8125 138.207031 40.109375 138.980469 39.445312 139.789062 C 38.78125 140.597656 38.15625 141.4375 37.574219 142.308594 C 36.996094 143.179688 36.457031 144.078125 35.964844 145 C 35.46875 145.921875 35.023438 146.871094 34.621094 147.835938 C 34.222656 148.804688 33.871094 149.789062 33.566406 150.789062 C 33.261719 151.792969 33.007812 152.808594 32.804688 153.832031 C 32.597656 154.859375 32.445312 155.894531 32.34375 156.9375 C 32.242188 157.980469 32.1875 159.023438 32.1875 160.070312 C 32.1875 161.117188 32.242188 162.164062 32.34375 163.203125 C 32.445312 164.246094 32.597656 165.28125 32.804688 166.308594 C 33.007812 167.335938 33.261719 168.347656 33.566406 169.351562 C 33.871094 170.351562 34.222656 171.335938 34.621094 172.304688 C 35.023438 173.273438 35.46875 174.21875 35.964844 175.140625 C 36.457031 176.066406 36.996094 176.960938 37.574219 177.832031 C 38.15625 178.703125 38.78125 179.542969 39.445312 180.351562 C 40.109375 181.160156 40.8125 181.9375 41.550781 182.675781 C 42.292969 183.417969 43.066406 184.121094 43.875 184.785156 C 44.683594 185.449219 45.523438 186.070312 46.394531 186.652344 C 47.265625 187.234375 48.164062 187.773438 49.085938 188.265625 C 50.007812 188.757812 50.953125 189.207031 51.921875 189.605469 C 52.886719 190.007812 53.871094 190.359375 54.875 190.664062 C 55.875 190.96875 56.890625 191.222656 57.917969 191.425781 C 58.945312 191.628906 59.976562 191.785156 61.019531 191.886719 C 62.0625 191.988281 63.105469 192.039062 64.152344 192.039062 L 112.101562 192.039062 L 112.101562 629.707031 C 112.101562 631.441406 112.148438 633.171875 112.234375 634.902344 C 112.324219 636.632812 112.453125 638.359375 112.625 640.085938 C 112.796875 641.808594 113.011719 643.527344 113.269531 645.242188 C 113.523438 646.957031 113.824219 648.660156 114.164062 650.359375 C 114.503906 652.058594 114.886719 653.75 115.308594 655.429688 C 115.730469 657.109375 116.195312 658.78125 116.699219 660.4375 C 117.203125 662.09375 117.75 663.738281 118.335938 665.371094 C 118.921875 667 119.546875 668.617188 120.210938 670.214844 C 120.875 671.816406 121.578125 673.398438 122.324219 674.964844 C 123.066406 676.53125 123.84375 678.078125 124.664062 679.605469 C 125.480469 681.132812 126.335938 682.636719 127.230469 684.121094 C 128.121094 685.609375 129.050781 687.070312 130.011719 688.511719 C 130.976562 689.949219 131.976562 691.367188 133.007812 692.757812 C 134.042969 694.148438 135.109375 695.511719 136.207031 696.851562 C 137.308594 698.1875 138.441406 699.5 139.605469 700.78125 C 140.769531 702.066406 141.964844 703.320312 143.191406 704.542969 C 144.417969 705.769531 145.671875 706.960938 146.957031 708.125 C 148.242188 709.289062 149.554688 710.417969 150.894531 711.515625 C 152.234375 712.613281 153.601562 713.679688 154.992188 714.710938 C 156.382812 715.742188 157.800781 716.738281 159.242188 717.699219 C 160.683594 718.664062 162.148438 719.589844 163.632812 720.480469 C 165.121094 721.367188 166.628906 722.222656 168.15625 723.039062 C 169.683594 723.855469 171.230469 724.632812 172.796875 725.371094 C 174.363281 726.113281 175.949219 726.8125 177.546875 727.476562 C 179.148438 728.140625 180.765625 728.761719 182.398438 729.34375 C 184.027344 729.929688 185.671875 730.472656 187.332031 730.972656 C 188.988281 731.476562 190.660156 731.9375 192.339844 732.359375 C 194.019531 732.777344 195.710938 733.15625 197.410156 733.496094 C 199.109375 733.832031 200.816406 734.128906 202.527344 734.382812 C 204.242188 734.636719 205.960938 734.847656 207.683594 735.019531 C 209.410156 735.1875 211.136719 735.316406 212.867188 735.402344 C 214.597656 735.484375 216.328125 735.527344 218.0625 735.527344 L 517.726562 735.527344 C 519.457031 735.527344 521.1875 735.480469 522.914062 735.394531 C 524.644531 735.304688 526.371094 735.175781 528.09375 735.003906 C 529.8125 734.832031 531.53125 734.617188 533.242188 734.363281 C 534.953125 734.105469 536.660156 733.808594 538.355469 733.46875 C 540.054688 733.128906 541.742188 732.746094 543.417969 732.324219 C 545.097656 731.902344 546.765625 731.441406 548.421875 730.9375 C 550.078125 730.433594 551.71875 729.886719 553.347656 729.304688 C 554.976562 728.71875 556.589844 728.09375 558.191406 727.429688 C 559.789062 726.765625 561.371094 726.066406 562.933594 725.324219 C 564.5 724.582031 566.042969 723.804688 567.570312 722.984375 C 569.09375 722.167969 570.601562 721.316406 572.085938 720.425781 C 573.570312 719.535156 575.03125 718.609375 576.46875 717.644531 C 577.90625 716.683594 579.324219 715.6875 580.710938 714.65625 C 582.101562 713.621094 583.464844 712.558594 584.804688 711.460938 C 586.140625 710.359375 587.453125 709.230469 588.734375 708.066406 C 590.015625 706.90625 591.269531 705.710938 592.492188 704.488281 C 593.71875 703.261719 594.910156 702.011719 596.074219 700.726562 C 597.234375 699.445312 598.363281 698.136719 599.464844 696.796875 C 600.5625 695.457031 601.625 694.09375 602.65625 692.703125 C 603.691406 691.316406 604.6875 689.898438 605.648438 688.460938 C 606.609375 687.023438 607.535156 685.558594 608.425781 684.074219 C 609.316406 682.589844 610.171875 681.085938 610.988281 679.558594 C 611.804688 678.035156 612.585938 676.488281 613.324219 674.925781 C 614.066406 673.359375 614.769531 671.777344 615.433594 670.179688 C 616.09375 668.582031 616.71875 666.964844 617.304688 665.335938 C 617.886719 663.707031 618.433594 662.0625 618.9375 660.410156 C 619.441406 658.753906 619.902344 657.085938 620.328125 655.40625 C 620.75 653.726562 621.128906 652.039062 621.46875 650.339844 C 621.808594 648.644531 622.105469 646.9375 622.363281 645.226562 C 622.617188 643.515625 622.832031 641.796875 623.003906 640.074219 C 623.175781 638.351562 623.304688 636.628906 623.394531 634.898438 C 623.480469 633.167969 623.527344 631.4375 623.527344 629.707031 L 623.527344 192.039062 L 671.476562 192.039062 C 672.523438 192.039062 673.566406 191.988281 674.609375 191.886719 C 675.648438 191.785156 676.683594 191.628906 677.710938 191.425781 C 678.738281 191.222656 679.75 190.96875 680.753906 190.664062 C 681.753906 190.359375 682.738281 190.007812 683.707031 189.605469 C 684.675781 189.207031 685.621094 188.757812 686.542969 188.265625 C 687.464844 187.773438 688.363281 187.234375 689.234375 186.652344 C 690.105469 186.070312 690.945312 185.449219 691.753906 184.785156 C 692.5625 184.121094 693.335938 183.417969 694.078125 182.675781 C 694.816406 181.9375 695.519531 181.160156 696.183594 180.351562 C 696.847656 179.542969 697.46875 178.703125 698.050781 177.832031 C 698.632812 176.960938 699.171875 176.066406 699.664062 175.140625 C 700.160156 174.21875 700.605469 173.273438 701.003906 172.304688 C 701.40625 171.335938 701.757812 170.351562 702.0625 169.351562 C 702.367188 168.347656 702.621094 167.335938 702.824219 166.308594 C 703.027344 165.28125 703.183594 164.246094 703.285156 163.203125 C 703.386719 162.164062 703.4375 161.117188 703.4375 160.070312 C 703.4375 159.023438 703.386719 157.980469 703.285156 156.9375 C 703.183594 155.894531 703.027344 154.859375 702.824219 153.832031 C 702.621094 152.808594 702.367188 151.792969 702.0625 150.789062 C 701.757812 149.789062 701.40625 148.804688 701.003906 147.835938 C 700.605469 146.867188 700.160156 145.921875 699.664062 145 C 699.171875 144.078125 698.632812 143.179688 698.050781 142.308594 C 697.46875 141.4375 696.847656 140.597656 696.183594 139.789062 C 695.519531 138.980469 694.816406 138.207031 694.078125 137.464844 C 693.335938 136.722656 692.5625 136.023438 691.753906 135.359375 C 690.945312 134.695312 690.105469 134.070312 689.234375 133.488281 C 688.363281 132.90625 687.464844 132.371094 686.542969 131.875 C 685.621094 131.382812 684.675781 130.933594 683.707031 130.535156 C 682.738281 130.132812 681.753906 129.78125 680.753906 129.476562 C 679.75 129.171875 678.738281 128.917969 677.710938 128.714844 C 676.683594 128.511719 675.648438 128.359375 674.609375 128.253906 C 673.566406 128.152344 672.523438 128.101562 671.476562 128.101562 Z M 271.921875 105.5625 C 271.921875 104.207031 271.988281 102.855469 272.121094 101.503906 C 272.253906 100.15625 272.453125 98.816406 272.714844 97.484375 C 272.980469 96.15625 273.308594 94.839844 273.703125 93.542969 C 274.097656 92.246094 274.554688 90.972656 275.070312 89.71875 C 275.589844 88.464844 276.167969 87.242188 276.808594 86.046875 C 277.449219 84.851562 278.144531 83.6875 278.898438 82.5625 C 279.652344 81.433594 280.457031 80.347656 281.316406 79.296875 C 282.175781 78.25 283.085938 77.246094 284.046875 76.289062 C 285.003906 75.328125 286.007812 74.417969 287.054688 73.558594 C 288.101562 72.699219 289.191406 71.890625 290.316406 71.136719 C 291.445312 70.386719 292.605469 69.6875 293.800781 69.050781 C 294.996094 68.410156 296.222656 67.832031 297.472656 67.3125 C 298.726562 66.792969 300 66.335938 301.300781 65.945312 C 302.597656 65.550781 303.910156 65.222656 305.238281 64.957031 C 306.570312 64.691406 307.910156 64.492188 309.257812 64.359375 C 310.605469 64.226562 311.960938 64.160156 313.316406 64.160156 L 422.3125 64.160156 C 423.667969 64.160156 425.019531 64.226562 426.371094 64.359375 C 427.71875 64.492188 429.058594 64.691406 430.386719 64.957031 C 431.71875 65.222656 433.03125 65.550781 434.328125 65.945312 C 435.625 66.335938 436.902344 66.792969 438.152344 67.3125 C 439.40625 67.832031 440.628906 68.410156 441.824219 69.050781 C 443.023438 69.6875 444.183594 70.386719 445.308594 71.136719 C 446.4375 71.890625 447.523438 72.699219 448.574219 73.558594 C 449.621094 74.417969 450.625 75.328125 451.582031 76.289062 C 452.542969 77.246094 453.449219 78.25 454.3125 79.296875 C 455.171875 80.347656 455.976562 81.433594 456.730469 82.5625 C 457.484375 83.6875 458.179688 84.851562 458.820312 86.046875 C 459.457031 87.242188 460.039062 88.464844 460.554688 89.71875 C 461.074219 90.972656 461.53125 92.246094 461.925781 93.542969 C 462.316406 94.839844 462.648438 96.15625 462.910156 97.484375 C 463.175781 98.816406 463.375 100.15625 463.507812 101.503906 C 463.640625 102.855469 463.707031 104.207031 463.707031 105.5625 L 463.707031 128.101562 L 271.921875 128.101562 Z M 559.601562 629.707031 C 559.59375 631.078125 559.523438 632.445312 559.382812 633.808594 C 559.246094 635.171875 559.039062 636.523438 558.769531 637.867188 C 558.496094 639.210938 558.160156 640.539062 557.761719 641.847656 C 557.359375 643.15625 556.898438 644.445312 556.371094 645.710938 C 555.84375 646.976562 555.257812 648.210938 554.609375 649.417969 C 553.960938 650.625 553.257812 651.800781 552.492188 652.9375 C 551.730469 654.078125 550.914062 655.175781 550.046875 656.234375 C 549.175781 657.292969 548.257812 658.308594 547.289062 659.277344 C 546.320312 660.246094 545.304688 661.164062 544.246094 662.035156 C 543.1875 662.902344 542.089844 663.71875 540.953125 664.480469 C 539.8125 665.242188 538.640625 665.949219 537.433594 666.597656 C 536.226562 667.246094 534.992188 667.832031 533.726562 668.359375 C 532.460938 668.886719 531.175781 669.347656 529.863281 669.75 C 528.554688 670.152344 527.226562 670.488281 525.882812 670.757812 C 524.542969 671.027344 523.1875 671.234375 521.824219 671.371094 C 520.464844 671.511719 519.097656 671.582031 517.726562 671.589844 L 218.0625 671.589844 C 216.6875 671.589844 215.316406 671.523438 213.953125 671.386719 C 212.585938 671.253906 211.226562 671.050781 209.878906 670.785156 C 208.535156 670.515625 207.203125 670.183594 205.886719 669.789062 C 204.574219 669.390625 203.28125 668.929688 202.011719 668.402344 C 200.742188 667.878906 199.503906 667.292969 198.292969 666.648438 C 197.078125 666.003906 195.902344 665.296875 194.757812 664.535156 C 193.617188 663.777344 192.511719 662.960938 191.449219 662.089844 C 190.386719 661.222656 189.367188 660.300781 188.394531 659.332031 C 187.421875 658.363281 186.5 657.347656 185.625 656.289062 C 184.753906 655.226562 183.933594 654.128906 183.167969 652.988281 C 182.402344 651.847656 181.695312 650.671875 181.042969 649.464844 C 180.394531 648.253906 179.804688 647.015625 179.273438 645.746094 C 178.746094 644.480469 178.277344 643.1875 177.875 641.875 C 177.472656 640.5625 177.136719 639.234375 176.863281 637.886719 C 176.589844 636.539062 176.386719 635.183594 176.246094 633.816406 C 176.105469 632.453125 176.035156 631.082031 176.027344 629.707031 L 176.027344 192.039062 L 559.601562 192.039062 Z M 559.601562 629.707031 " fill-opacity="1" fill-rule="nonzero"/></g><path fill="#000000" d="M 287.902344 263.8125 C 286.855469 263.8125 285.8125 263.863281 284.769531 263.96875 C 283.726562 264.070312 282.695312 264.222656 281.667969 264.425781 C 280.640625 264.632812 279.625 264.886719 278.625 265.191406 C 277.621094 265.492188 276.636719 265.847656 275.671875 266.246094 C 274.703125 266.648438 273.757812 267.09375 272.835938 267.589844 C 271.914062 268.082031 271.015625 268.621094 270.144531 269.199219 C 269.273438 269.78125 268.433594 270.40625 267.625 271.070312 C 266.816406 271.734375 266.042969 272.4375 265.300781 273.175781 C 264.5625 273.917969 263.859375 274.691406 263.195312 275.5 C 262.53125 276.3125 261.90625 277.152344 261.324219 278.019531 C 260.746094 278.890625 260.207031 279.789062 259.714844 280.710938 C 259.21875 281.636719 258.773438 282.582031 258.371094 283.546875 C 257.972656 284.515625 257.621094 285.5 257.316406 286.503906 C 257.011719 287.503906 256.757812 288.519531 256.554688 289.546875 C 256.347656 290.574219 256.195312 291.605469 256.09375 292.648438 C 255.992188 293.691406 255.9375 294.734375 255.9375 295.78125 L 255.9375 583.511719 C 255.9375 584.558594 255.992188 585.601562 256.09375 586.644531 C 256.195312 587.6875 256.347656 588.722656 256.554688 589.75 C 256.757812 590.777344 257.011719 591.789062 257.316406 592.792969 C 257.621094 593.792969 257.972656 594.777344 258.371094 595.746094 C 258.773438 596.714844 259.21875 597.660156 259.714844 598.582031 C 260.207031 599.503906 260.746094 600.402344 261.324219 601.273438 C 261.90625 602.144531 262.53125 602.984375 263.195312 603.792969 C 263.859375 604.601562 264.5625 605.378906 265.300781 606.117188 C 266.042969 606.859375 266.816406 607.558594 267.625 608.226562 C 268.433594 608.890625 269.273438 609.511719 270.144531 610.09375 C 271.015625 610.675781 271.914062 611.214844 272.835938 611.707031 C 273.757812 612.199219 274.703125 612.648438 275.671875 613.046875 C 276.636719 613.449219 277.621094 613.800781 278.625 614.105469 C 279.625 614.410156 280.640625 614.664062 281.667969 614.867188 C 282.695312 615.070312 283.726562 615.226562 284.769531 615.328125 C 285.8125 615.429688 286.855469 615.480469 287.902344 615.480469 C 288.949219 615.480469 289.996094 615.429688 291.035156 615.328125 C 292.078125 615.226562 293.113281 615.070312 294.140625 614.867188 C 295.167969 614.664062 296.179688 614.410156 297.183594 614.105469 C 298.183594 613.800781 299.167969 613.449219 300.136719 613.046875 C 301.101562 612.648438 302.046875 612.199219 302.972656 611.707031 C 303.894531 611.214844 304.792969 610.675781 305.660156 610.09375 C 306.53125 609.511719 307.371094 608.890625 308.179688 608.226562 C 308.992188 607.558594 309.765625 606.859375 310.503906 606.117188 C 311.246094 605.378906 311.949219 604.601562 312.613281 603.792969 C 313.277344 602.984375 313.898438 602.144531 314.480469 601.273438 C 315.0625 600.402344 315.601562 599.503906 316.09375 598.582031 C 316.585938 597.660156 317.035156 596.714844 317.433594 595.746094 C 317.835938 594.777344 318.1875 593.792969 318.492188 592.792969 C 318.796875 591.789062 319.050781 590.777344 319.253906 589.75 C 319.457031 588.722656 319.609375 587.6875 319.714844 586.644531 C 319.816406 585.601562 319.867188 584.558594 319.867188 583.511719 L 319.867188 295.78125 C 319.867188 294.734375 319.816406 293.691406 319.714844 292.648438 C 319.609375 291.605469 319.457031 290.574219 319.253906 289.546875 C 319.050781 288.519531 318.796875 287.503906 318.492188 286.503906 C 318.1875 285.5 317.835938 284.515625 317.433594 283.546875 C 317.035156 282.582031 316.585938 281.636719 316.09375 280.710938 C 315.601562 279.789062 315.0625 278.890625 314.480469 278.019531 C 313.898438 277.152344 313.277344 276.3125 312.613281 275.5 C 311.949219 274.691406 311.246094 273.917969 310.503906 273.175781 C 309.765625 272.4375 308.992188 271.734375 308.179688 271.070312 C 307.371094 270.40625 306.53125 269.78125 305.660156 269.199219 C 304.792969 268.621094 303.894531 268.082031 302.972656 267.589844 C 302.046875 267.09375 301.101562 266.648438 300.136719 266.246094 C 299.167969 265.847656 298.183594 265.492188 297.183594 265.191406 C 296.179688 264.886719 295.167969 264.632812 294.140625 264.425781 C 293.113281 264.222656 292.078125 264.070312 291.035156 263.96875 C 289.996094 263.863281 288.949219 263.8125 287.902344 263.8125 Z M 287.902344 263.8125 " fill-opacity="1" fill-rule="nonzero"/><path fill="#000000" d="M 447.726562 263.8125 C 446.679688 263.8125 445.632812 263.863281 444.589844 263.96875 C 443.550781 264.070312 442.515625 264.222656 441.488281 264.425781 C 440.460938 264.632812 439.449219 264.886719 438.445312 265.191406 C 437.445312 265.492188 436.460938 265.847656 435.492188 266.246094 C 434.527344 266.648438 433.582031 267.09375 432.65625 267.589844 C 431.734375 268.082031 430.835938 268.621094 429.964844 269.199219 C 429.097656 269.78125 428.257812 270.40625 427.445312 271.070312 C 426.636719 271.734375 425.863281 272.4375 425.121094 273.175781 C 424.382812 273.917969 423.679688 274.691406 423.015625 275.5 C 422.351562 276.3125 421.730469 277.152344 421.148438 278.019531 C 420.566406 278.890625 420.027344 279.789062 419.535156 280.710938 C 419.042969 281.636719 418.59375 282.582031 418.195312 283.546875 C 417.792969 284.515625 417.441406 285.5 417.136719 286.503906 C 416.832031 287.503906 416.578125 288.519531 416.375 289.546875 C 416.171875 290.574219 416.015625 291.605469 415.914062 292.648438 C 415.8125 293.691406 415.761719 294.734375 415.761719 295.78125 L 415.761719 583.511719 C 415.761719 584.558594 415.8125 585.601562 415.914062 586.644531 C 416.015625 587.6875 416.171875 588.722656 416.375 589.75 C 416.578125 590.777344 416.832031 591.789062 417.136719 592.792969 C 417.441406 593.792969 417.792969 594.777344 418.195312 595.746094 C 418.59375 596.714844 419.042969 597.660156 419.535156 598.582031 C 420.027344 599.503906 420.566406 600.402344 421.148438 601.273438 C 421.730469 602.144531 422.351562 602.984375 423.015625 603.792969 C 423.679688 604.601562 424.382812 605.378906 425.121094 606.117188 C 425.863281 606.859375 426.636719 607.558594 427.445312 608.226562 C 428.257812 608.890625 429.097656 609.511719 429.964844 610.09375 C 430.835938 610.675781 431.734375 611.214844 432.65625 611.707031 C 433.582031 612.199219 434.523438 612.648438 435.492188 613.046875 C 436.460938 613.449219 437.445312 613.800781 438.445312 614.105469 C 439.449219 614.410156 440.460938 614.664062 441.488281 614.867188 C 442.515625 615.070312 443.550781 615.226562 444.589844 615.328125 C 445.632812 615.429688 446.679688 615.480469 447.726562 615.480469 C 448.773438 615.480469 449.816406 615.429688 450.859375 615.328125 C 451.898438 615.226562 452.933594 615.070312 453.960938 614.867188 C 454.988281 614.664062 456 614.410156 457.003906 614.105469 C 458.003906 613.800781 458.988281 613.449219 459.957031 613.046875 C 460.925781 612.648438 461.871094 612.199219 462.792969 611.707031 C 463.714844 611.214844 464.613281 610.675781 465.484375 610.09375 C 466.355469 609.511719 467.195312 608.890625 468.003906 608.226562 C 468.8125 607.558594 469.585938 606.859375 470.328125 606.117188 C 471.066406 605.378906 471.769531 604.601562 472.433594 603.792969 C 473.097656 602.984375 473.71875 602.144531 474.300781 601.273438 C 474.882812 600.402344 475.421875 599.503906 475.914062 598.582031 C 476.410156 597.660156 476.855469 596.714844 477.253906 595.746094 C 477.65625 594.777344 478.007812 593.792969 478.3125 592.792969 C 478.617188 591.789062 478.871094 590.777344 479.074219 589.75 C 479.277344 588.722656 479.433594 587.6875 479.535156 586.644531 C 479.636719 585.601562 479.6875 584.558594 479.6875 583.511719 L 479.6875 295.78125 C 479.6875 294.734375 479.636719 293.691406 479.535156 292.648438 C 479.433594 291.605469 479.277344 290.574219 479.074219 289.546875 C 478.871094 288.519531 478.617188 287.503906 478.3125 286.503906 C 478.007812 285.5 477.65625 284.515625 477.253906 283.546875 C 476.855469 282.582031 476.410156 281.636719 475.914062 280.710938 C 475.421875 279.789062 474.882812 278.890625 474.300781 278.019531 C 473.71875 277.152344 473.097656 276.3125 472.433594 275.5 C 471.769531 274.691406 471.066406 273.917969 470.328125 273.175781 C 469.585938 272.4375 468.8125 271.734375 468.003906 271.070312 C 467.195312 270.40625 466.355469 269.78125 465.484375 269.199219 C 464.613281 268.621094 463.714844 268.082031 462.792969 267.589844 C 461.871094 267.09375 460.925781 266.648438 459.957031 266.246094 C 458.988281 265.847656 458.003906 265.492188 457.003906 265.191406 C 456 264.886719 454.988281 264.632812 453.960938 264.425781 C 452.933594 264.222656 451.898438 264.070312 450.859375 263.96875 C 449.816406 263.863281 448.773438 263.8125 447.726562 263.8125 Z M 447.726562 263.8125 " fill-opacity="1" fill-rule="nonzero"/></svg>