<svg xmlns="http://www.w3.org/2000/svg" xmlns:xlink="http://www.w3.org/1999/xlink" width="981" zoomAndPan="magnify" viewBox="0 0 735.75 735.749978" height="981" preserveAspectRatio="xMidYMid meet" version="1.0"><path fill="#000000" d="M 104.667969 728.34375 L 202.867188 699.53125 C 210.828125 697.148438 218.375 693.824219 225.5 689.550781 C 232.628906 685.28125 239.117188 680.195312 244.96875 674.296875 L 697.898438 221.367188 C 732.957031 186.3125 736.382812 132.703125 705.539062 101.859375 L 636.144531 32.464844 C 605.296875 1.589844 551.6875 5.035156 516.636719 40.105469 L 63.707031 493.027344 C 57.808594 498.878906 52.722656 505.363281 48.453125 512.488281 C 44.179688 519.613281 40.851562 527.152344 38.472656 535.109375 L 9.65625 633.324219 C 8.566406 636.632812 7.703125 639.996094 7.070312 643.417969 C 6.433594 646.84375 6.035156 650.292969 5.867188 653.769531 C 5.703125 657.25 5.769531 660.722656 6.078125 664.1875 C 6.382812 667.65625 6.921875 671.089844 7.691406 674.484375 C 8.464844 677.878906 9.460938 681.207031 10.683594 684.464844 C 11.90625 687.726562 13.347656 690.886719 15 693.949219 C 16.652344 697.015625 18.503906 699.953125 20.554688 702.765625 C 22.605469 705.578125 24.839844 708.238281 27.253906 710.75 C 30.71875 714.175781 34.488281 717.226562 38.558594 719.90625 C 42.628906 722.582031 46.925781 724.835938 51.445312 726.65625 C 55.964844 728.480469 60.617188 729.84375 65.410156 730.742188 C 70.199219 731.640625 75.03125 732.058594 79.902344 731.996094 C 88.332031 731.96875 96.589844 730.75 104.667969 728.34375 Z M 559.101562 82.570312 C 560.671875 80.90625 562.386719 79.40625 564.242188 78.070312 C 566.101562 76.734375 568.070312 75.585938 570.148438 74.625 C 572.222656 73.667969 574.375 72.914062 576.59375 72.363281 C 578.816406 71.816406 581.070312 71.484375 583.355469 71.367188 C 585.242188 71.261719 587.078125 71.515625 588.867188 72.132812 C 590.652344 72.75 592.257812 73.679688 593.679688 74.929688 L 663.074219 144.324219 C 669.433594 150.679688 667.511719 166.820312 655.4375 178.902344 L 585.925781 248.410156 L 489.59375 152.078125 Z M 67.285156 650.25 L 96.097656 552.019531 C 97.074219 548.890625 98.414062 545.933594 100.117188 543.136719 C 101.824219 540.339844 103.839844 537.792969 106.171875 535.492188 L 447.128906 194.542969 L 543.460938 290.875 L 202.503906 631.832031 C 200.203125 634.160156 197.65625 636.179688 194.859375 637.882812 C 192.0625 639.589844 189.101562 640.929688 185.976562 641.90625 L 87.761719 670.71875 C 86.285156 671.335938 84.757812 671.753906 83.167969 671.960938 C 81.582031 672.171875 79.996094 672.171875 78.414062 671.957031 C 76.828125 671.742188 75.296875 671.324219 73.824219 670.703125 C 72.351562 670.078125 70.984375 669.273438 69.726562 668.28125 C 68.738281 667.023438 67.929688 665.660156 67.308594 664.1875 C 66.683594 662.714844 66.265625 661.183594 66.050781 659.597656 C 65.835938 658.011719 65.832031 656.425781 66.042969 654.839844 C 66.253906 653.253906 66.667969 651.722656 67.285156 650.25 Z M 67.285156 650.25 " fill-opacity="1" fill-rule="nonzero"/></svg>