<svg xmlns="http://www.w3.org/2000/svg" xmlns:xlink="http://www.w3.org/1999/xlink" width="981" zoomAndPan="magnify" viewBox="0 0 735.75 735.749978" height="981" preserveAspectRatio="xMidYMid meet" version="1.0"><defs><clipPath id="ada4ccfff3"><path d="M 449 452 L 733 452 L 733 735.5 L 449 735.5 Z M 449 452 " clip-rule="nonzero"/></clipPath></defs><path fill="#000000" d="M 303.863281 587.519531 C 298.117188 587.523438 292.378906 587.347656 286.644531 587 C 280.910156 586.648438 275.191406 586.125 269.488281 585.425781 C 263.785156 584.722656 258.109375 583.847656 252.460938 582.800781 C 246.8125 581.75 241.203125 580.527344 235.628906 579.132812 C 230.054688 577.742188 224.527344 576.175781 219.050781 574.445312 C 213.574219 572.710938 208.152344 570.8125 202.792969 568.746094 C 197.429688 566.679688 192.140625 564.453125 186.914062 562.0625 C 181.691406 559.671875 176.542969 557.121094 171.476562 554.414062 C 166.410156 551.710938 161.429688 548.847656 156.535156 545.835938 C 151.644531 542.824219 146.847656 539.664062 142.152344 536.359375 C 137.453125 533.050781 132.859375 529.605469 128.375 526.015625 C 123.886719 522.425781 119.515625 518.703125 115.257812 514.847656 C 111 510.988281 106.863281 507.003906 102.851562 502.894531 C 98.835938 498.78125 94.953125 494.550781 91.199219 490.203125 C 87.445312 485.851562 83.828125 481.390625 80.351562 476.820312 C 76.871094 472.25 73.535156 467.574219 70.339844 462.796875 C 67.148438 458.023438 64.105469 453.152344 61.210938 448.1875 C 58.316406 443.226562 55.578125 438.179688 52.996094 433.046875 C 50.410156 427.914062 47.988281 422.710938 45.722656 417.429688 C 43.457031 412.148438 41.359375 406.804688 39.421875 401.394531 C 37.488281 395.984375 35.71875 390.523438 34.117188 385.003906 C 32.515625 379.484375 31.085938 373.925781 29.828125 368.320312 C 28.570312 362.714844 27.484375 357.074219 26.570312 351.402344 C 25.65625 345.730469 24.917969 340.035156 24.355469 334.316406 C 23.792969 328.597656 23.40625 322.871094 23.191406 317.128906 C 22.980469 311.386719 22.945312 305.644531 23.085938 299.902344 C 23.230469 294.15625 23.546875 288.425781 24.039062 282.699219 C 24.53125 276.976562 25.199219 271.273438 26.042969 265.589844 C 26.886719 259.90625 27.902344 254.253906 29.09375 248.632812 C 30.285156 243.011719 31.644531 237.433594 33.179688 231.898438 C 34.710938 226.359375 36.414062 220.875 38.28125 215.441406 C 40.152344 210.011719 42.1875 204.640625 44.386719 199.332031 C 46.585938 194.023438 48.945312 188.789062 51.464844 183.625 C 53.984375 178.464844 56.664062 173.382812 59.496094 168.382812 C 62.328125 163.386719 65.3125 158.480469 68.445312 153.664062 C 71.578125 148.847656 74.859375 144.132812 78.28125 139.519531 C 81.703125 134.90625 85.265625 130.402344 88.964844 126.007812 C 92.667969 121.609375 96.496094 117.332031 100.460938 113.171875 C 104.421875 109.011719 108.507812 104.980469 112.71875 101.070312 C 116.929688 97.160156 121.253906 93.382812 125.699219 89.742188 C 130.140625 86.097656 134.691406 82.59375 139.347656 79.230469 C 144.003906 75.863281 148.761719 72.644531 153.617188 69.574219 C 158.46875 66.503906 163.414062 63.582031 168.449219 60.8125 C 173.484375 58.042969 178.597656 55.433594 183.792969 52.976562 C 188.988281 50.523438 194.25 48.230469 199.585938 46.097656 C 204.921875 43.96875 210.316406 42.003906 215.773438 40.203125 C 221.230469 38.402344 226.734375 36.769531 232.292969 35.308594 C 237.847656 33.847656 243.445312 32.558594 249.078125 31.4375 C 254.714844 30.320312 260.378906 29.375 266.074219 28.605469 C 271.765625 27.832031 277.476562 27.238281 283.207031 26.820312 C 288.9375 26.398438 294.675781 26.15625 300.417969 26.085938 C 306.164062 26.019531 311.90625 26.128906 317.644531 26.414062 C 323.382812 26.695312 329.105469 27.15625 334.816406 27.792969 C 340.527344 28.429688 346.210938 29.242188 351.871094 30.226562 C 357.53125 31.210938 363.15625 32.371094 368.746094 33.699219 C 374.335938 35.03125 379.878906 36.53125 385.375 38.203125 C 390.871094 39.875 396.3125 41.710938 401.695312 43.714844 C 407.082031 45.722656 412.398438 47.890625 417.648438 50.222656 C 422.898438 52.550781 428.074219 55.042969 433.171875 57.691406 C 438.269531 60.339844 443.28125 63.144531 448.207031 66.101562 C 453.132812 69.058594 457.964844 72.164062 462.699219 75.417969 C 467.433594 78.667969 472.066406 82.066406 476.59375 85.601562 C 481.121094 89.140625 485.535156 92.8125 489.835938 96.621094 C 494.136719 100.433594 498.316406 104.367188 502.375 108.433594 C 504.816406 110.871094 507.207031 113.347656 509.554688 115.871094 C 511.898438 118.394531 514.199219 120.960938 516.453125 123.566406 C 518.703125 126.175781 520.90625 128.824219 523.0625 131.511719 C 525.214844 134.203125 527.320312 136.929688 529.375 139.695312 C 531.429688 142.464844 533.429688 145.265625 535.382812 148.105469 C 537.332031 150.945312 539.230469 153.820312 541.074219 156.734375 C 542.917969 159.644531 544.710938 162.585938 546.445312 165.5625 C 548.183594 168.539062 549.863281 171.546875 551.488281 174.582031 C 553.113281 177.621094 554.683594 180.6875 556.195312 183.785156 C 557.707031 186.878906 559.164062 190.003906 560.5625 193.152344 C 561.957031 196.300781 563.296875 199.476562 564.578125 202.675781 C 565.859375 205.875 567.078125 209.09375 568.242188 212.339844 C 569.402344 215.582031 570.503906 218.847656 571.546875 222.132812 C 572.589844 225.417969 573.570312 228.71875 574.488281 232.039062 C 575.410156 235.359375 576.269531 238.695312 577.066406 242.046875 C 577.863281 245.402344 578.597656 248.765625 579.269531 252.144531 C 579.941406 255.523438 580.554688 258.914062 581.101562 262.316406 C 581.648438 265.71875 582.136719 269.128906 582.558594 272.550781 C 582.980469 275.96875 583.339844 279.394531 583.636719 282.828125 C 583.929688 286.261719 584.164062 289.699219 584.335938 293.140625 C 584.503906 296.582031 584.609375 300.023438 584.652344 303.46875 C 584.695312 306.914062 584.675781 310.359375 584.589844 313.804688 C 584.507812 317.25 584.359375 320.691406 584.148438 324.128906 C 583.9375 327.570312 583.660156 331.003906 583.324219 334.433594 C 582.988281 337.863281 582.585938 341.285156 582.121094 344.699219 C 581.660156 348.113281 581.132812 351.515625 580.542969 354.910156 C 579.953125 358.308594 579.304688 361.691406 578.589844 365.0625 C 577.875 368.433594 577.101562 371.789062 576.261719 375.128906 C 575.425781 378.472656 574.527344 381.800781 573.566406 385.109375 C 572.609375 388.417969 571.585938 391.707031 570.507812 394.980469 C 569.425781 398.25 568.285156 401.5 567.082031 404.730469 C 565.882812 407.960938 564.621094 411.167969 563.304688 414.351562 C 561.984375 417.535156 560.605469 420.691406 559.171875 423.824219 C 557.738281 426.957031 556.242188 430.0625 554.695312 433.140625 C 553.144531 436.214844 551.539062 439.265625 549.875 442.28125 C 548.214844 445.300781 546.496094 448.289062 544.726562 451.242188 C 542.953125 454.199219 541.128906 457.121094 539.246094 460.007812 C 537.367188 462.894531 535.4375 465.746094 533.453125 468.5625 C 531.464844 471.378906 529.429688 474.160156 527.34375 476.902344 C 525.257812 479.640625 523.121094 482.34375 520.933594 485.007812 C 518.746094 487.671875 516.511719 490.292969 514.226562 492.871094 C 511.945312 495.453125 509.613281 497.992188 507.238281 500.484375 C 504.859375 502.980469 502.4375 505.429688 499.972656 507.835938 C 497.503906 510.242188 494.992188 512.601562 492.441406 514.914062 C 489.886719 517.226562 487.289062 519.492188 484.652344 521.707031 C 482.015625 523.925781 479.339844 526.09375 476.621094 528.210938 C 473.902344 530.332031 471.148438 532.398438 468.355469 534.417969 C 465.5625 536.433594 462.730469 538.398438 459.867188 540.3125 C 457 542.222656 454.097656 544.082031 451.164062 545.890625 C 448.230469 547.695312 445.265625 549.449219 442.265625 551.144531 C 439.265625 552.839844 436.238281 554.480469 433.179688 556.066406 C 430.117188 557.652344 427.03125 559.179688 423.914062 560.652344 C 420.800781 562.125 417.65625 563.535156 414.488281 564.890625 C 411.324219 566.25 408.128906 567.542969 404.914062 568.78125 C 401.699219 570.019531 398.460938 571.199219 395.203125 572.316406 C 391.945312 573.4375 388.664062 574.496094 385.367188 575.492188 C 382.070312 576.492188 378.753906 577.429688 375.421875 578.304688 C 372.089844 579.179688 368.742188 579.996094 365.378906 580.746094 C 362.015625 581.5 358.640625 582.191406 355.253906 582.816406 C 351.867188 583.445312 348.46875 584.011719 345.058594 584.515625 C 341.652344 585.019531 338.234375 585.457031 334.808594 585.835938 C 331.382812 586.210938 327.953125 586.527344 324.515625 586.777344 C 321.082031 587.027344 317.640625 587.214844 314.195312 587.339844 C 310.753906 587.460938 307.308594 587.523438 303.863281 587.519531 Z M 303.863281 87.917969 C 299.679688 87.910156 295.496094 88.019531 291.320312 88.25 C 287.140625 88.480469 282.972656 88.832031 278.8125 89.300781 C 274.65625 89.769531 270.515625 90.359375 266.390625 91.0625 C 262.265625 91.769531 258.164062 92.59375 254.085938 93.535156 C 250.007812 94.476562 245.960938 95.535156 241.945312 96.710938 C 237.929688 97.882812 233.949219 99.171875 230.003906 100.570312 C 226.0625 101.972656 222.164062 103.488281 218.308594 105.113281 C 214.449219 106.738281 210.644531 108.472656 206.886719 110.316406 C 203.128906 112.160156 199.429688 114.109375 195.785156 116.164062 C 192.140625 118.21875 188.554688 120.378906 185.035156 122.636719 C 181.515625 124.898438 178.058594 127.257812 174.675781 129.71875 C 171.289062 132.175781 167.976562 134.730469 164.734375 137.378906 C 161.496094 140.027344 158.335938 142.769531 155.25 145.597656 C 152.167969 148.425781 149.167969 151.34375 146.253906 154.34375 C 143.339844 157.347656 140.511719 160.429688 137.773438 163.59375 C 135.035156 166.757812 132.386719 169.996094 129.835938 173.3125 C 127.28125 176.628906 124.824219 180.015625 122.464844 183.472656 C 120.105469 186.925781 117.847656 190.449219 115.691406 194.035156 C 113.535156 197.621094 111.480469 201.265625 109.53125 204.96875 C 107.585938 208.671875 105.742188 212.425781 104.011719 216.234375 C 102.277344 220.046875 100.65625 223.902344 99.144531 227.800781 C 97.628906 231.703125 96.230469 235.648438 94.945312 239.628906 C 93.660156 243.609375 92.488281 247.625 91.433594 251.675781 C 90.375 255.726562 89.4375 259.800781 88.613281 263.902344 C 87.792969 268.007812 87.089844 272.128906 86.503906 276.273438 C 85.914062 280.417969 85.449219 284.574219 85.101562 288.746094 C 84.753906 292.914062 84.523438 297.089844 84.417969 301.273438 C 84.308594 305.457031 84.320312 309.640625 84.453125 313.824219 C 84.582031 318.007812 84.832031 322.183594 85.203125 326.351562 C 85.574219 330.519531 86.066406 334.671875 86.671875 338.8125 C 87.28125 342.953125 88.007812 347.070312 88.855469 351.171875 C 89.699219 355.269531 90.660156 359.339844 91.738281 363.382812 C 92.816406 367.425781 94.011719 371.4375 95.320312 375.410156 C 96.625 379.386719 98.046875 383.320312 99.582031 387.214844 C 101.113281 391.105469 102.757812 394.953125 104.511719 398.753906 C 106.265625 402.550781 108.128906 406.296875 110.097656 409.992188 C 112.066406 413.683594 114.136719 417.316406 116.316406 420.890625 C 118.492188 424.464844 120.769531 427.972656 123.148438 431.417969 C 125.527344 434.859375 128 438.230469 130.570312 441.535156 C 133.144531 444.835938 135.808594 448.058594 138.5625 451.210938 C 141.320312 454.359375 144.164062 457.425781 147.09375 460.410156 C 150.027344 463.398438 153.042969 466.296875 156.140625 469.109375 C 159.238281 471.921875 162.414062 474.644531 165.667969 477.273438 C 168.921875 479.90625 172.25 482.441406 175.648438 484.882812 C 179.050781 487.320312 182.515625 489.664062 186.050781 491.902344 C 189.582031 494.144531 193.179688 496.285156 196.835938 498.320312 C 200.492188 500.355469 204.203125 502.285156 207.96875 504.105469 C 211.738281 505.929688 215.550781 507.644531 219.417969 509.246094 C 223.28125 510.851562 227.191406 512.34375 231.140625 513.722656 C 235.089844 515.101562 239.078125 516.367188 243.101562 517.519531 C 247.125 518.671875 251.175781 519.707031 255.261719 520.625 C 259.34375 521.546875 263.449219 522.347656 267.578125 523.03125 C 271.703125 523.714844 275.847656 524.28125 280.011719 524.726562 C 284.171875 525.171875 288.339844 525.5 292.519531 525.707031 C 296.699219 525.914062 300.882812 526 305.066406 525.96875 C 309.25 525.9375 313.433594 525.785156 317.609375 525.511719 C 321.785156 525.242188 325.949219 524.847656 330.101562 524.339844 C 334.253906 523.828125 338.390625 523.199219 342.507812 522.449219 C 346.625 521.703125 350.71875 520.839844 354.785156 519.855469 C 358.851562 518.875 362.890625 517.777344 366.894531 516.5625 C 370.898438 515.347656 374.867188 514.019531 378.792969 512.582031 C 382.722656 511.140625 386.609375 509.585938 390.445312 507.921875 C 394.285156 506.257812 398.074219 504.488281 401.8125 502.605469 C 405.550781 500.726562 409.234375 498.738281 412.859375 496.648438 C 416.484375 494.554688 420.042969 492.363281 423.542969 490.066406 C 427.042969 487.769531 430.472656 485.375 433.832031 482.882812 C 437.195312 480.390625 440.480469 477.804688 443.695312 475.125 C 446.90625 472.441406 450.039062 469.671875 453.09375 466.8125 C 456.148438 463.949219 459.121094 461.003906 462.003906 457.972656 C 464.890625 454.941406 467.6875 451.832031 470.394531 448.640625 C 473.101562 445.449219 475.714844 442.183594 478.234375 438.84375 C 480.753906 435.503906 483.175781 432.09375 485.5 428.613281 C 487.824219 425.132812 490.046875 421.589844 492.171875 417.980469 C 494.292969 414.375 496.308594 410.710938 498.21875 406.988281 C 500.128906 403.265625 501.933594 399.488281 503.628906 395.664062 C 505.324219 391.839844 506.90625 387.964844 508.378906 384.050781 C 509.855469 380.132812 511.214844 376.175781 512.460938 372.183594 C 513.707031 368.1875 514.835938 364.160156 515.851562 360.101562 C 516.867188 356.042969 517.765625 351.957031 518.546875 347.84375 C 519.328125 343.734375 519.992188 339.605469 520.535156 335.453125 C 521.082031 331.304688 521.507812 327.144531 521.8125 322.972656 C 522.121094 318.796875 522.304688 314.617188 522.371094 310.433594 C 522.4375 306.25 522.386719 302.066406 522.210938 297.886719 C 522.039062 293.707031 521.746094 289.53125 521.335938 285.367188 C 520.921875 281.203125 520.390625 277.054688 519.742188 272.921875 C 519.089844 268.785156 518.324219 264.675781 517.4375 260.585938 C 516.550781 256.496094 515.550781 252.433594 514.429688 248.402344 C 513.3125 244.371094 512.078125 240.371094 510.730469 236.410156 C 509.382812 232.449219 507.921875 228.527344 506.351562 224.652344 C 504.777344 220.773438 503.097656 216.941406 501.304688 213.160156 C 499.511719 209.378906 497.613281 205.652344 495.609375 201.980469 C 493.601562 198.308594 491.496094 194.695312 489.28125 191.140625 C 487.070312 187.589844 484.757812 184.105469 482.34375 180.683594 C 479.933594 177.265625 477.425781 173.917969 474.820312 170.644531 C 472.214844 167.367188 469.519531 164.167969 466.730469 161.046875 C 463.945312 157.925781 461.070312 154.886719 458.109375 151.929688 C 453.058594 146.878906 447.769531 142.082031 442.25 137.546875 C 436.726562 133.011719 430.996094 128.757812 425.054688 124.785156 C 419.117188 120.8125 412.996094 117.140625 406.695312 113.769531 C 400.394531 110.394531 393.945312 107.339844 387.34375 104.601562 C 380.746094 101.863281 374.027344 99.453125 367.191406 97.375 C 360.355469 95.292969 353.433594 93.554688 346.425781 92.152344 C 339.417969 90.753906 332.359375 89.699219 325.246094 88.992188 C 318.136719 88.285156 311.007812 87.925781 303.863281 87.917969 Z M 303.863281 87.917969 " fill-opacity="1" fill-rule="nonzero"/><g clip-path="url(#ada4ccfff3)"><path fill="#000000" d="M 701.816406 735.75 C 699.792969 735.742188 697.792969 735.535156 695.808594 735.132812 C 693.828125 734.730469 691.902344 734.140625 690.039062 733.359375 C 688.171875 732.578125 686.402344 731.625 684.722656 730.496094 C 683.046875 729.367188 681.492188 728.082031 680.066406 726.648438 L 458.726562 505.460938 C 458.011719 504.746094 457.332031 504 456.691406 503.21875 C 456.050781 502.4375 455.449219 501.625 454.886719 500.785156 C 454.324219 499.945312 453.804688 499.078125 453.328125 498.1875 C 452.851562 497.292969 452.421875 496.382812 452.035156 495.449219 C 451.648438 494.515625 451.308594 493.5625 451.015625 492.597656 C 450.71875 491.628906 450.476562 490.648438 450.277344 489.65625 C 450.082031 488.667969 449.933594 487.667969 449.832031 486.660156 C 449.734375 485.65625 449.683594 484.648438 449.683594 483.636719 C 449.683594 482.625 449.734375 481.617188 449.832031 480.609375 C 449.933594 479.605469 450.082031 478.605469 450.277344 477.613281 C 450.476562 476.621094 450.71875 475.644531 451.015625 474.675781 C 451.308594 473.707031 451.648438 472.757812 452.035156 471.824219 C 452.421875 470.890625 452.851562 469.976562 453.328125 469.085938 C 453.804688 468.195312 454.324219 467.328125 454.886719 466.488281 C 455.449219 465.648438 456.050781 464.835938 456.691406 464.054688 C 457.332031 463.273438 458.011719 462.523438 458.726562 461.808594 C 459.441406 461.09375 460.1875 460.417969 460.96875 459.777344 C 461.75 459.136719 462.5625 458.535156 463.402344 457.972656 C 464.242188 457.410156 465.109375 456.890625 466 456.414062 C 466.890625 455.9375 467.804688 455.507812 468.738281 455.121094 C 469.671875 454.734375 470.625 454.390625 471.589844 454.097656 C 472.558594 453.804688 473.539062 453.558594 474.53125 453.363281 C 475.519531 453.164062 476.519531 453.015625 477.527344 452.917969 C 478.53125 452.820312 479.539062 452.769531 480.550781 452.769531 C 481.5625 452.769531 482.570312 452.820312 483.578125 452.917969 C 484.582031 453.019531 485.582031 453.164062 486.574219 453.363281 C 487.5625 453.558594 488.542969 453.804688 489.511719 454.097656 C 490.480469 454.390625 491.429688 454.734375 492.363281 455.121094 C 493.296875 455.507812 494.210938 455.9375 495.101562 456.414062 C 495.992188 456.890625 496.859375 457.410156 497.699219 457.972656 C 498.539062 458.535156 499.351562 459.136719 500.132812 459.777344 C 500.914062 460.417969 501.660156 461.09375 502.375 461.808594 L 723.566406 683.152344 C 724.632812 684.226562 725.613281 685.371094 726.511719 686.585938 C 727.410156 687.804688 728.210938 689.082031 728.921875 690.414062 C 729.632812 691.75 730.242188 693.128906 730.75 694.554688 C 731.257812 695.980469 731.65625 697.433594 731.949219 698.917969 C 732.242188 700.402344 732.425781 701.898438 732.5 703.410156 C 732.574219 704.921875 732.535156 706.429688 732.386719 707.933594 C 732.238281 709.4375 731.980469 710.925781 731.613281 712.390625 C 731.246094 713.859375 730.773438 715.292969 730.195312 716.6875 C 729.617188 718.085938 728.941406 719.433594 728.164062 720.734375 C 727.386719 722.03125 726.519531 723.265625 725.5625 724.4375 C 724.605469 725.605469 723.566406 726.699219 722.449219 727.71875 C 721.328125 728.734375 720.144531 729.667969 718.886719 730.511719 C 717.632812 731.351562 716.320312 732.101562 714.957031 732.75 C 713.589844 733.402344 712.183594 733.949219 710.738281 734.390625 C 709.292969 734.835938 707.824219 735.171875 706.328125 735.398438 C 704.832031 735.625 703.328125 735.742188 701.816406 735.75 Z M 701.816406 735.75 " fill-opacity="1" fill-rule="nonzero"/></g></svg>