<svg xmlns="http://www.w3.org/2000/svg" xmlns:xlink="http://www.w3.org/1999/xlink" width="1080" zoomAndPan="magnify" viewBox="0 0 810 735.75" height="981" preserveAspectRatio="xMidYMid meet" version="1.0"><defs><clipPath id="b2be7fc266"><path d="M 258.746094 304.878906 L 547.613281 304.878906 L 547.613281 552.21875 L 258.746094 552.21875 Z M 258.746094 304.878906 " clip-rule="nonzero"/></clipPath><clipPath id="8f872745cc"><path d="M 293.234375 304.878906 L 513.125 304.878906 C 522.269531 304.878906 531.042969 308.511719 537.511719 314.980469 C 543.976562 321.445312 547.613281 330.21875 547.613281 339.367188 L 547.613281 517.730469 C 547.613281 526.878906 543.976562 535.652344 537.511719 542.117188 C 531.042969 548.585938 522.269531 552.21875 513.125 552.21875 L 293.234375 552.21875 C 284.089844 552.21875 275.316406 548.585938 268.847656 542.117188 C 262.382812 535.652344 258.746094 526.878906 258.746094 517.730469 L 258.746094 339.367188 C 258.746094 330.21875 262.382812 321.445312 268.847656 314.980469 C 275.316406 308.511719 284.089844 304.878906 293.234375 304.878906 " clip-rule="nonzero"/></clipPath><clipPath id="5078365cdd"><path d="M 0.136719 0.277344 L 807.628906 0.277344 L 807.628906 735.5 L 0.136719 735.5 Z M 0.136719 0.277344 " clip-rule="nonzero"/></clipPath></defs><g clip-path="url(#b2be7fc266)"><g clip-path="url(#8f872745cc)"><path fill="#ffffff" d="M 258.746094 304.878906 L 547.613281 304.878906 L 547.613281 552.21875 L 258.746094 552.21875 Z M 258.746094 304.878906 " fill-opacity="1" fill-rule="nonzero"/></g></g><g clip-path="url(#5078365cdd)"><path fill="#000000" d="M 429.132812 323.632812 C 414.78125 309.273438 391.503906 309.273438 377.152344 323.632812 L 266.878906 433.960938 L 318.859375 485.96875 L 366.382812 438.421875 L 366.382812 735.777344 L 439.898438 735.777344 L 439.898438 438.421875 L 487.425781 485.96875 L 539.40625 433.960938 Z M 368.683594 0.277344 C 233.265625 0.277344 124.476562 108.683594 114.433594 243.714844 C 47.300781 260.480469 -1.191406 323.085938 -1.191406 395.605469 C -1.191406 480.554688 65.347656 551.902344 150.433594 551.902344 L 609.90625 551.902344 C 632.496094 551.902344 653.992188 546.785156 673.289062 537.625 C 752.363281 506.277344 807.476562 427.265625 807.476562 335.847656 C 807.476562 217.898438 715.222656 119.792969 598.417969 119.792969 C 593.089844 119.792969 587.800781 120 582.566406 120.40625 C 537.347656 48.523438 458.792969 0.277344 368.683594 0.277344 Z M 368.683594 0.277344 " fill-opacity="1" fill-rule="evenodd"/></g></svg>